<?xml version="1.0" encoding="UTF-8" standalone="no"?>
<!DOCTYPE svg PUBLIC "-//W3C//DTD SVG 1.1//EN"
 "http://www.w3.org/Graphics/SVG/1.1/DTD/svg11.dtd">
<!-- Generated by graphviz version 3.0.0 (0)
 -->
<!-- Title: G Pages: 1 -->
<svg width="584pt" height="360pt"
 viewBox="0.00 0.00 584.12 360.41" xmlns="http://www.w3.org/2000/svg" xmlns:xlink="http://www.w3.org/1999/xlink">
<g id="graph0" class="graph" transform="scale(1 1) rotate(0) translate(4 356.41)">
<title>G</title><style>.edge>path:hover{stroke-width:8}</style>
<polygon fill="white" stroke="transparent" points="-4,4 -4,-356.41 580.12,-356.41 580.12,4 -4,4"/>
<!-- Control -->
<g id="node1" class="node">
<title>Control</title><style>.edge>path:hover{stroke-width:8}</style>
<ellipse fill="#8f3d3d" stroke="black" cx="259.45" cy="-334.41" rx="30.72" ry="18"/>
<text text-anchor="middle" x="259.45" y="-331.91" font-family="Helvetica,sans-Serif" font-size="10.00" fill="#ffffff">Control</text>
</g>
<!-- control_functions -->
<g id="node2" class="node">
<title>control_functions</title><style>.edge>path:hover{stroke-width:8}</style>
<ellipse fill="#c09540" stroke="black" cx="59.45" cy="-190.41" rx="59.41" ry="18"/>
<text text-anchor="middle" x="59.45" y="-187.91" font-family="Helvetica,sans-Serif" font-size="10.00" fill="#000000">control_functions</text>
</g>
<!-- control_functions&#45;&gt;Control -->
<g id="edge1" class="edge">
<title>control_functions&#45;&gt;Control</title><style>.edge>path:hover{stroke-width:8}</style>
<path fill="none" stroke="black" d="M58.7,-208.5C58.78,-228.37 62.02,-260.91 80.45,-280.41 116.3,-318.32 177.85,-329.51 218.6,-332.59"/>
<polygon fill="#c09540" stroke="black" points="218.54,-336.1 228.74,-333.23 218.97,-329.11 218.54,-336.1"/>
</g>
<!-- loop_functions -->
<g id="node6" class="node">
<title>loop_functions</title><style>.edge>path:hover{stroke-width:8}</style>
<ellipse fill="#3a89b0" stroke="black" cx="141.45" cy="-262.41" rx="51.61" ry="18"/>
<text text-anchor="middle" x="141.45" y="-259.91" font-family="Helvetica,sans-Serif" font-size="10.00" fill="#ffffff">loop_functions</text>
</g>
<!-- control_functions&#45;&gt;loop_functions -->
<g id="edge2" class="edge">
<title>control_functions&#45;&gt;loop_functions</title><style>.edge>path:hover{stroke-width:8}</style>
<path fill="none" stroke="black" d="M78.47,-207.64C89.31,-216.9 103.06,-228.64 114.95,-238.78"/>
<polygon fill="#c09540" stroke="black" points="112.94,-241.67 122.82,-245.5 117.49,-236.35 112.94,-241.67"/>
</g>
<!-- cv2 -->
<g id="node3" class="node">
<title>cv2</title><style>.edge>path:hover{stroke-width:8}</style>
<ellipse fill="#a2e619" stroke="black" cx="72.45" cy="-115.2" rx="27" ry="18"/>
<text text-anchor="middle" x="72.45" y="-112.7" font-family="Helvetica,sans-Serif" font-size="10.00" fill="#000000">cv2</text>
</g>
<!-- cv2&#45;&gt;control_functions -->
<g id="edge3" class="edge">
<title>cv2&#45;&gt;control_functions</title><style>.edge>path:hover{stroke-width:8}</style>
<path fill="none" stroke="black" d="M69.44,-133.18C67.91,-141.8 66.01,-152.49 64.28,-162.22"/>
<polygon fill="#a2e619" stroke="black" points="60.8,-161.81 62.5,-172.27 67.69,-163.03 60.8,-161.81"/>
</g>
<!-- get_chip_img -->
<g id="node4" class="node">
<title>get_chip_img</title><style>.edge>path:hover{stroke-width:8}</style>
<ellipse fill="#35a135" stroke="black" cx="297.45" cy="-262.41" rx="48.04" ry="18"/>
<text text-anchor="middle" x="297.45" y="-259.91" font-family="Helvetica,sans-Serif" font-size="10.00" fill="#ffffff">get_chip_img</text>
</g>
<!-- cv2&#45;&gt;get_chip_img -->
<g id="edge4" class="edge">
<title>cv2&#45;&gt;get_chip_img</title><style>.edge>path:hover{stroke-width:8}</style>
<path fill="none" stroke="black" d="M91.37,-128.22C96.73,-131.24 102.69,-134.23 108.45,-136.41 190.08,-167.2 290.9,-102.42 297.45,-189.41"/>
<path fill="none" stroke="black" d="M297.45,-191.41C298.52,-205.52 298.61,-221.27 298.4,-234.25"/>
<polygon fill="#a2e619" stroke="black" points="294.9,-234.33 298.17,-244.41 301.9,-234.49 294.9,-234.33"/>
</g>
<!-- cv2&#45;&gt;loop_functions -->
<g id="edge5" class="edge">
<title>cv2&#45;&gt;loop_functions</title><style>.edge>path:hover{stroke-width:8}</style>
<path fill="none" stroke="black" d="M90.02,-129.19C102.56,-139.46 118.7,-154.96 127.45,-172.41 137.08,-191.57 140.41,-215.74 141.43,-234.05"/>
<polygon fill="#a2e619" stroke="black" points="137.93,-234.2 141.79,-244.07 144.93,-233.95 137.93,-234.2"/>
</g>
<!-- get_chip_img&#45;&gt;Control -->
<g id="edge6" class="edge">
<title>get_chip_img&#45;&gt;Control</title><style>.edge>path:hover{stroke-width:8}</style>
<path fill="none" stroke="black" d="M288.26,-280.35C283.71,-288.73 278.13,-299.01 273.1,-308.28"/>
<polygon fill="#35a135" stroke="black" points="270,-306.64 268.31,-317.1 276.15,-309.98 270,-306.64"/>
</g>
<!-- helperscripts -->
<g id="node5" class="node">
<title>helperscripts</title><style>.edge>path:hover{stroke-width:8}</style>
<ellipse fill="#47c299" stroke="black" cx="221.45" cy="-190.41" rx="47.19" ry="18"/>
<text text-anchor="middle" x="221.45" y="-187.91" font-family="Helvetica,sans-Serif" font-size="10.00" fill="#000000">helperscripts</text>
</g>
<!-- helperscripts&#45;&gt;Control -->
<g id="edge7" class="edge">
<title>helperscripts&#45;&gt;Control</title><style>.edge>path:hover{stroke-width:8}</style>
<path fill="none" stroke="black" d="M224.42,-208.64C227.7,-226.69 233.45,-255.79 240.45,-280.41 242.93,-289.1 246.09,-298.42 249.13,-306.79"/>
<polygon fill="#47c299" stroke="black" points="245.94,-308.26 252.71,-316.41 252.5,-305.82 245.94,-308.26"/>
</g>
<!-- helperscripts&#45;&gt;loop_functions -->
<g id="edge8" class="edge">
<title>helperscripts&#45;&gt;loop_functions</title><style>.edge>path:hover{stroke-width:8}</style>
<path fill="none" stroke="black" d="M203.3,-207.29C192.74,-216.54 179.24,-228.34 167.56,-238.57"/>
<polygon fill="#47c299" stroke="black" points="165.03,-236.13 159.81,-245.35 169.64,-241.39 165.03,-236.13"/>
</g>
<!-- loop_functions&#45;&gt;Control -->
<g id="edge9" class="edge">
<title>loop_functions&#45;&gt;Control</title><style>.edge>path:hover{stroke-width:8}</style>
<path fill="none" stroke="black" d="M166.48,-278.25C184.93,-289.2 210.12,-304.14 229.62,-315.71"/>
<polygon fill="#3a89b0" stroke="black" points="228.02,-318.83 238.41,-320.92 231.6,-312.81 228.02,-318.83"/>
</g>
<!-- machine_learning_Nano_yolo -->
<g id="node7" class="node">
<title>machine_learning_Nano_yolo</title><style>.edge>path:hover{stroke-width:8}</style>
<ellipse fill="#5353b6" stroke="black" cx="500.45" cy="-115.2" rx="75.82" ry="21.43"/>
<text text-anchor="middle" x="500.45" y="-118.2" font-family="Helvetica,sans-Serif" font-size="10.00" fill="#ffffff">machine_learning.</text>
<text text-anchor="middle" x="500.45" y="-107.2" font-family="Helvetica,sans-Serif" font-size="10.00" fill="#ffffff">Nano_yolo</text>
</g>
<!-- machine_learning_Nano_yolo&#45;&gt;get_chip_img -->
<g id="edge10" class="edge">
<title>machine_learning_Nano_yolo&#45;&gt;get_chip_img</title><style>.edge>path:hover{stroke-width:8}</style>
<path fill="none" stroke="black" d="M446.45,-130.13C385.91,-146.54 296.26,-173.55 297.45,-189.41"/>
</g>
<!-- machine_learning_image_methods -->
<g id="node8" class="node">
<title>machine_learning_image_methods</title><style>.edge>path:hover{stroke-width:8}</style>
<ellipse fill="#5353b6" stroke="black" cx="193.45" cy="-115.2" rx="75.82" ry="21.43"/>
<text text-anchor="middle" x="193.45" y="-118.2" font-family="Helvetica,sans-Serif" font-size="10.00" fill="#ffffff">machine_learning.</text>
<text text-anchor="middle" x="193.45" y="-107.2" font-family="Helvetica,sans-Serif" font-size="10.00" fill="#ffffff">image_methods</text>
</g>
<!-- machine_learning_image_methods&#45;&gt;get_chip_img -->
<g id="edge11" class="edge">
<title>machine_learning_image_methods&#45;&gt;get_chip_img</title><style>.edge>path:hover{stroke-width:8}</style>
<path fill="none" stroke="black" d="M242.97,-131.27C268.72,-142.49 295.31,-160.9 297.45,-189.41"/>
</g>
<!-- machine_learning_yolo_ml_yolov5 -->
<g id="node9" class="node">
<title>machine_learning_yolo_ml_yolov5</title><style>.edge>path:hover{stroke-width:8}</style>
<ellipse fill="#5353b6" stroke="black" cx="297.45" cy="-28.99" rx="75.82" ry="28.98"/>
<text text-anchor="middle" x="297.45" y="-37.49" font-family="Helvetica,sans-Serif" font-size="10.00" fill="#ffffff">machine_learning.</text>
<text text-anchor="middle" x="297.45" y="-26.49" font-family="Helvetica,sans-Serif" font-size="10.00" fill="#ffffff">yolo_ml.</text>
<text text-anchor="middle" x="297.45" y="-15.49" font-family="Helvetica,sans-Serif" font-size="10.00" fill="#ffffff">yolov5</text>
</g>
<!-- machine_learning_yolo_ml_yolov5&#45;&gt;get_chip_img -->
<g id="edge12" class="edge">
<title>machine_learning_yolo_ml_yolov5&#45;&gt;get_chip_img</title><style>.edge>path:hover{stroke-width:8}</style>
<path fill="none" stroke="black" d="M296.17,-58.26C295.03,-90.17 294,-143.6 297.45,-189.41"/>
</g>
<!-- serial -->
<g id="node10" class="node">
<title>serial</title><style>.edge>path:hover{stroke-width:8}</style>
<ellipse fill="#9540c0" stroke="black" cx="390.45" cy="-262.41" rx="27" ry="18"/>
<text text-anchor="middle" x="390.45" y="-259.91" font-family="Helvetica,sans-Serif" font-size="10.00" fill="#ffffff">serial</text>
</g>
<!-- serial&#45;&gt;Control -->
<g id="edge13" class="edge">
<title>serial&#45;&gt;Control</title><style>.edge>path:hover{stroke-width:8}</style>
<path fill="none" stroke="black" d="M369.99,-274.35C348.67,-285.73 315.03,-303.71 290.46,-316.84"/>
<polygon fill="#9540c0" stroke="black" points="288.7,-313.81 281.53,-321.61 292,-319.99 288.7,-313.81"/>
</g>
<!-- tinyg -->
<g id="node11" class="node">
<title>tinyg</title><style>.edge>path:hover{stroke-width:8}</style>
<ellipse fill="#b65395" stroke="black" cx="462.45" cy="-262.41" rx="27" ry="18"/>
<text text-anchor="middle" x="462.45" y="-259.91" font-family="Helvetica,sans-Serif" font-size="10.00" fill="#ffffff">tinyg</text>
</g>
<!-- tinyg&#45;&gt;Control -->
<g id="edge14" class="edge">
<title>tinyg&#45;&gt;Control</title><style>.edge>path:hover{stroke-width:8}</style>
<path fill="none" stroke="black" d="M441.34,-273.96C436.5,-276.21 431.34,-278.49 426.45,-280.41 382.71,-297.59 330.93,-313.34 296.76,-323.13"/>
<polygon fill="#b65395" stroke="black" points="295.41,-319.87 286.74,-325.97 297.32,-326.6 295.41,-319.87"/>
</g>
<!-- tinyg_tinyg -->
<g id="node12" class="node">
<title>tinyg_tinyg</title><style>.edge>path:hover{stroke-width:8}</style>
<ellipse fill="#b65395" stroke="black" cx="366.45" cy="-115.2" rx="40.74" ry="18"/>
<text text-anchor="middle" x="366.45" y="-112.7" font-family="Helvetica,sans-Serif" font-size="10.00" fill="#ffffff">tinyg.tinyg</text>
</g>
<!-- tinyg_tinyg&#45;&gt;get_chip_img -->
<g id="edge15" class="edge">
<title>tinyg_tinyg&#45;&gt;get_chip_img</title><style>.edge>path:hover{stroke-width:8}</style>
<path fill="none" stroke="black" d="M340.96,-129.27C320.49,-141.82 295.45,-162.76 297.45,-189.41"/>
</g>
</g>
</svg>
